Coordinates
version=1
nRows=26
nColumns=24
inDegrees=yes

Units are S.I. units (second, meters, Newtons, ...)
Angles are in degrees.

endheader
time	pelvis_tilt	pelvis_list	pelvis_rotation	pelvis_tx	pelvis_ty	pelvis_tz	hip_flexion_r	hip_adduction_r	hip_rotation_r	knee_angle_r	ankle_angle_r	subtalar_angle_r	mtp_angle_r	hip_flexion_l	hip_adduction_l	hip_rotation_l	knee_angle_l	ankle_angle_l	subtalar_angle_l	mtp_angle_l	lumbar_extension	lumbar_bending	lumbar_rotation
      0.82066667	      3.50419815	     -5.15273731	     -1.61275948	     -0.40877249	      1.02292214	      0.29327593	      6.13705300	      7.98432990	     -4.00412906	    -11.52364341	     -5.01909560	    -14.53972288	     -2.48253581	     13.50786945	    -10.16066701	     -6.33131404	    -70.61640838	      2.89555895	    -13.75148950	    -10.35303726	    -13.70578207	      6.66090518	      5.30560617
      0.82483333	      3.51799285	     -5.01328475	     -1.79747507	     -0.40355919	      1.02387898	      0.29378061	      5.64972824	      7.85949974	     -3.86422259	    -11.25704502	     -4.90987009	    -14.39011020	     -2.48756081	     14.04609145	    -10.00812019	     -6.42357364	    -70.24468857	      3.15680218	    -13.62692968	    -10.48266945	    -13.75469842	      6.45163423	      5.49492536
      0.82900000	      3.51272688	     -4.88057551	     -1.95549844	     -0.39836095	      1.02475981	      0.29418685	      5.18465360	      7.73230788	     -3.76389626	    -10.98172954	     -4.86015497	    -14.26012339	     -2.48748418	     14.60355431	     -9.85151249	     -6.49209883	    -69.82637736	      3.43148087	    -13.51514981	    -10.54176610	    -13.78260124	      6.26448650	      5.60364568
      0.83316667	      3.56746129	     -4.74275429	     -2.17396042	     -0.39313179	      1.02572013	      0.29474000	      4.65395188	      7.60328174	     -3.60753761	    -10.72372981	     -4.67609366	    -14.04268420	     -2.48194495	     15.04081001	     -9.72238086	     -6.65266609	    -69.31151019	      3.65728139	    -13.33008082	    -10.65997797	    -13.87621234	      6.03973909	      5.85341125
      0.83733333	      3.56454638	     -4.61190401	     -2.33747965	     -0.38791334	      1.02654667	      0.29511852	      4.18372545	      7.47079548	     -3.51098579	    -10.43831261	     -4.65089583	    -13.92136855	     -2.47824890	     15.55095614	     -9.57137730	     -6.74309125	    -68.75860423	      3.89776393	    -13.19258508	    -10.71231571	    -13.89760634	      5.86824063	      5.96596672
      0.84150000	      3.67388452	     -4.46700847	     -2.59685359	     -0.38266731	      1.02754240	      0.29573721	      3.59338002	      7.32892204	     -3.31509771	    -10.18021856	     -4.45155010	    -13.70542770	     -2.46235360	     15.86365542	     -9.45566961	     -6.98079871	    -68.09522356	      4.09698566	    -12.99663436	    -10.83791453	    -14.04839956	      5.63068868	      6.25535744
      0.84566667	      3.73428422	     -4.32907436	     -2.82129518	     -0.37741971	      1.02842158	      0.29627616	      3.05245059	      7.19060368	     -3.15145875	     -9.89950497	     -4.36679842	    -13.57514324	     -2.44313921	     16.22892936	     -9.33439864	     -7.17598675	    -67.38892939	      4.29401340	    -12.82205535	    -10.96731389	    -14.13850764	      5.40871977	      6.47544555
      0.84983333	      3.79295226	     -4.19686255	     -3.03393798	     -0.37219994	      1.02923409	      0.29676946	      2.52012453	      7.05160703	     -3.00033024	     -9.62748439	     -4.25731118	    -13.41807885	     -2.42201352	     16.58723904	     -9.21788013	     -7.36543542	    -66.63884017	      4.48631539	    -12.62578434	    -11.07012952	    -14.23649696	      5.18474075	      6.65790740
      0.85400000	      3.87612274	     -4.06279545	     -3.27922440	     -0.36693287	      1.03007455	      0.29730119	      1.95961849	      6.90636872	     -2.82378474	     -9.35621585	     -4.15403173	    -13.27216435	     -2.39338001	     16.87376983	     -9.11137228	     -7.60880848	    -65.80641561	      4.65703728	    -12.45708999	    -11.19049199	    -14.34459997	      4.97758698	      6.89034445
      0.85816667	      3.95625383	     -3.93919552	     -3.50629662	     -0.36167205	      1.03084806	      0.29781437	      1.40453815	      6.76912008	     -2.66777362	     -9.08633026	     -4.04677803	    -13.14255146	     -2.36353282	     17.15333541	     -9.01788733	     -7.84191145	    -64.93104085	      4.82255236	    -12.27151246	    -11.29466324	    -14.44644474	      4.76552075	      7.08349685
      0.86233333	      4.04945476	     -3.81759573	     -3.74736980	     -0.35641859	      1.03160396	      0.29833659	      0.83781998	      6.62964386	     -2.48543522	     -8.81761680	     -3.94300466	    -13.01684921	     -2.32935645	     17.39138521	     -8.93117268	     -8.10007832	    -63.99539945	      4.97378028	    -12.10092976	    -11.39969630	    -14.56699013	      4.55617608	      7.29896415
      0.86650000	      4.10848747	     -3.70343800	     -3.99167452	     -0.35117146	      1.03226068	      0.29886175	      0.31170343	      6.49809286	     -2.28343126	     -8.55309364	     -3.84664471	    -12.90306924	     -2.29170705	     17.65021716	     -8.85736837	     -8.36325658	    -63.01523554	      5.10963808	    -11.94660533	    -11.50618267	    -14.65461646	      4.35400389	      7.51571803
      0.87066667	      4.20727941	     -3.59917059	     -4.24138020	     -0.34591217	      1.03292512	      0.29939580	     -0.25538992	      6.37008988	     -2.08268003	     -8.29411640	     -3.73812381	    -12.80450815	     -2.25146662	     17.83707041	     -8.80098830	     -8.65362857	    -61.97830669	      5.23686939	    -11.79739166	    -11.61304126	    -14.77576009	      4.15971116	      7.73439915
      0.87483333	      4.16248264	     -3.52625104	     -4.39040255	     -0.34063663	      1.03327809	      0.29965414	     -0.66458811	      6.27398526	     -1.99614755	     -8.02983863	     -3.71799721	    -12.72124071	     -2.23678412	     18.21464523	     -8.73630040	     -8.80305427	    -60.94698392	      5.36925406	    -11.65903812	    -11.64934994	    -14.72715791	      4.05689432	      7.81879244
      0.87900000	      4.35438518	     -3.41541000	     -4.73743199	     -0.33541350	      1.03402260	      0.30041251	     -1.31878686	      6.12965133	     -1.66194141	     -7.80267656	     -3.49802864	    -12.60088994	     -2.18951194	     18.21245207	     -8.71706520	     -9.24491915	    -59.76956199	      5.44668564	    -11.56756003	    -11.76235599	    -14.96776578	      3.80588382	      8.14392544
      0.88316667	      4.43249712	     -3.33188969	     -4.99024365	     -0.33015771	      1.03451208	      0.30093895	     -1.85503888	      6.01551339	     -1.42083028	     -7.55361570	     -3.40586839	    -12.57090371	     -2.14583929	     18.35787040	     -8.69086919	     -9.56354605	    -58.58785353	      5.53960555	    -11.45783707	    -11.87240368	    -15.06586538	      3.63006054	      8.37730006
      0.88733333	      4.49849417	     -3.27210044	     -5.24006112	     -0.32491435	      1.03491684	      0.30144199	     -2.37285615	      5.92161805	     -1.18024680	     -7.31733534	     -3.28945267	    -12.51347755	     -2.10071543	     18.50198308	     -8.69222260	     -9.88448203	    -57.37444374	      5.62582442	    -11.37414056	    -11.98960311	    -15.15097711	      3.48792512	      8.60383323
      0.89150000	      4.53233806	     -3.21694649	     -5.48442963	     -0.31966293	      1.03521818	      0.30192603	     -2.84820586	      5.83169255	     -0.94829445	     -7.09737404	     -3.15853246	    -12.46387473	     -2.05973510	     18.66350683	     -8.69847072	    -10.20664255	    -56.12045183	      5.69610699	    -11.32688356	    -12.09992951	    -15.19843951	      3.35482789	      8.79901571
      0.89566667	      4.59355421	     -3.17325140	     -5.72904918	     -0.31442189	      1.03551421	      0.30239440	     -3.35145484	      5.74575886	     -0.70434263	     -6.88101148	     -3.02073168	    -12.41899212	     -2.01956446	     18.77093467	     -8.71660138	    -10.54589806	    -54.81836222	      5.75815589	    -11.29483312	    -12.21519982	    -15.27584849	      3.22782549	      9.00807440
      0.89983333	      4.54428237	     -3.15387340	     -5.88916604	     -0.30914310	      1.03555680	      0.30263916	     -3.73345155	      5.69058837	     -0.57216429	     -6.66528762	     -2.95812764	    -12.37096730	     -2.00106491	     19.01731511	     -8.72770546	    -10.76997692	    -53.51413035	      5.83673686	    -11.25527371	    -12.27275310	    -15.21591419	      3.17576267	      9.10292474
      0.90400000	      4.65692820	     -3.14475132	     -6.18724646	     -0.30396719	      1.03583306	      0.30323744	     -4.28526152	      5.63237677	     -0.22616180	     -6.46999655	     -2.73777076	    -12.34050817	     -1.96007846	     19.00886222	     -8.80900905	    -11.20272590	    -52.12137807	      5.86846424	    -11.29343653	    -12.41150852	    -15.37656535	      3.06493129	      9.41870673
      0.90816667	      4.65825803	     -3.13784045	     -6.41209767	     -0.29872199	      1.03587179	      0.30363979	     -4.71536388	      5.58134928	      0.01222615	     -6.27594738	     -2.59158400	    -12.32172001	     -1.92918843	     19.12910798	     -8.86432009	    -11.54477609	    -50.71227133	      5.90916995	    -11.32079783	    -12.53483822	    -15.38863170	      2.99534611	      9.57815923
      0.91233333	      4.57389661	     -3.15092922	     -6.55809091	     -0.29342274	      1.03570433	      0.30382705	     -5.05669556	      5.55516280	      0.13811565	     -6.07415914	     -2.49883963	    -12.27194805	     -1.91558949	     19.35620579	     -8.91125601	    -11.79279869	    -49.29708371	      5.96574860	    -11.34147548	    -12.59716270	    -15.29984241	      2.99513180	      9.65891035
      0.91650000	      4.64864994	     -3.18322554	     -6.82628862	     -0.28825056	      1.03576404	      0.30432557	     -5.55587637	      5.53139931	      0.45088245	     -5.91182866	     -2.26403880	    -12.23562442	     -1.88727242	     19.33644893	     -9.02176231	    -12.21497923	    -47.79805792	      5.99159377	    -11.41810929	    -12.74742326	    -15.40751435	      2.93669183	      9.94899996
      0.92066667	      4.59938895	     -3.21696085	     -7.01426122	     -0.28300627	      1.03556410	      0.30460985	     -5.92648522	      5.51993725	      0.66401228	     -5.73733595	     -2.10992146	    -12.20634601	     -1.86907932	     19.46508795	     -9.10408949	    -12.53574889	    -46.28904964	      6.01737337	    -11.48848285	    -12.87470072	    -15.36414556	      2.93050586	     10.06589725
      0.92483333	      4.53327948	     -3.27042471	     -7.19220889	     -0.27776489	      1.03528453	      0.30483718	     -6.27571855	      5.52609971	      0.85848931	     -5.57434826	     -1.93191046	    -12.15567343	     -1.85459709	     19.59789082	     -9.20268830	    -12.85803447	    -44.75462873	      6.05076135	    -11.56331500	    -13.00632772	    -15.31300314	      2.96170165	     10.21633484
